<!--?xml version="1.0" standalone="no"?-->
              <svg id="sw-js-blob-svg" viewBox="0 0 100 100" xmlns="http://www.w3.org/2000/svg" version="1.1">
                    <defs> 
                        <linearGradient id="sw-gradient" x1="0" x2="1" y1="1" y2="0">
                            <stop id="stop1" stop-color="rgba(108.662, 225.437, 246.718, 1)" offset="0%"></stop>
                            <stop id="stop2" stop-color="rgba(8.785, 176.862, 192.075, 1)" offset="100%"></stop>
                        </linearGradient>
                    </defs>
                <path fill="url(#sw-gradient)" d="M24,-33.1C31.6,-27.5,38.6,-21.2,40.2,-13.7C41.7,-6.2,37.8,2.4,34.1,10.2C30.4,18.1,26.9,25.1,21.2,31.3C15.6,37.5,7.8,42.9,0.5,42.2C-6.8,41.5,-13.6,34.8,-20,28.8C-26.4,22.9,-32.3,17.7,-35.6,10.8C-38.8,3.9,-39.5,-4.5,-36.5,-11.3C-33.6,-18.1,-27.1,-23.2,-20.4,-29.2C-13.7,-35.1,-6.9,-41.9,0.7,-42.8C8.2,-43.7,16.4,-38.8,24,-33.1Z" width="100%" height="100%" transform="translate(50 50)" stroke-width="0" style="transition: all 0.3s ease 0s;" stroke="url(#sw-gradient)"></path>
              </svg>